<mxfile host="app.diagrams.net" modified="2024-05-20T21:30:45.091Z" agent="Mozilla/5.0 (X11; Linux x86_64; rv:126.0) Gecko/20100101 Firefox/126.0" version="24.2.5" etag="yDE9cq5BFG_Ou_gLrSvw" type="github">
  <diagram name="Page-1" id="mLlrIexJ9fZd_A2HoGhO">
    <mxGraphModel>
      <root>
        <mxCell id="0" />
        <mxCell id="1" parent="0" />
      </root>
    </mxGraphModel>
  </diagram>
</mxfile>
